<svg width="161" height="161" viewBox="0 0 161 161" fill="none" xmlns="http://www.w3.org/2000/svg">
<path d="M80.5 13.4167C85.8375 13.4167 90.9564 15.537 94.7305 19.3111C98.5047 23.0853 100.625 28.2042 100.625 33.5417V73.7917C100.625 79.1292 98.5047 84.248 94.7305 88.0222C90.9564 91.7964 85.8375 93.9167 80.5 93.9167C75.1625 93.9167 70.0437 91.7964 66.2695 88.0222C62.4953 84.248 60.375 79.1292 60.375 73.7917V33.5417C60.375 28.2042 62.4953 23.0853 66.2695 19.3111C70.0437 15.537 75.1625 13.4167 80.5 13.4167ZM127.458 73.7917C127.458 97.4721 109.95 116.993 87.2084 120.28V140.875H73.7917V120.28C51.0504 116.993 33.5417 97.4721 33.5417 73.7917H46.9584C46.9584 82.6875 50.4922 91.2189 56.7825 97.5092C63.0728 103.799 71.6042 107.333 80.5 107.333C89.3958 107.333 97.9273 103.799 104.218 97.5092C110.508 91.2189 114.042 82.6875 114.042 73.7917H127.458Z" fill="black"/>
</svg>
